<?xml version="1.0" standalone="no"?>
<!DOCTYPE svg PUBLIC "-//W3C//DTD SVG 20010904//EN"
 "http://www.w3.org/TR/2001/REC-SVG-20010904/DTD/svg10.dtd">
<svg version="1.0" xmlns="http://www.w3.org/2000/svg"
 width="1024.000000pt" height="1024.000000pt" viewBox="0 0 1024.000000 1024.000000"
 preserveAspectRatio="xMidYMid meet">

<g transform="translate(0.000000,1024.000000) scale(0.100000,-0.100000)"
fill="#000000" stroke="none">
<path d="M0 5120 l0 -5120 5120 0 5120 0 0 5120 0 5120 -5120 0 -5120 0 0
-5120z m5232 3588 c27 -17 47 -33 44 -36 -3 -3 -14 2 -24 11 -10 10 -21 17
-24 17 -3 0 -26 12 -49 26 -25 14 -33 22 -20 18 14 -3 47 -20 73 -36z m-99 12
c3 -11 1 -20 -4 -20 -5 0 -9 9 -9 20 0 11 2 20 4 20 2 0 6 -9 9 -20z m-42 -23
c-10 -9 -11 -8 -5 6 3 10 9 15 12 12 3 -3 0 -11 -7 -18z m79 2 c0 -5 -4 -9
-10 -9 -5 0 -10 7 -10 16 0 8 5 12 10 9 6 -3 10 -10 10 -16z m50 -31 c0 -6 -6
-5 -15 2 -8 7 -15 14 -15 16 0 2 7 1 15 -2 8 -4 15 -11 15 -16z m-130 -25
c-11 -17 -11 -17 -6 0 3 10 6 24 7 30 0 9 2 9 5 0 3 -7 0 -20 -6 -30z m40 -3
c0 -5 -5 -10 -11 -10 -5 0 -7 5 -4 10 3 6 8 10 11 10 2 0 4 -4 4 -10z m-30
-46 c0 -8 5 -14 12 -14 6 0 8 -3 4 -7 -4 -5 -14 1 -22 11 -16 23 -19 40 -4 31
6 -3 10 -13 10 -21z m123 13 c3 -8 2 -20 -3 -26 -5 -9 -7 -4 -7 13 0 29 2 32
10 13z m47 -17 c0 -5 -2 -10 -4 -10 -3 0 -8 5 -11 10 -3 6 -1 10 4 10 6 0 11
-4 11 -10z m-80 -8 c0 -5 -7 -9 -15 -9 -8 0 -12 4 -9 9 3 4 9 8 15 8 5 0 9 -4
9 -8z m-40 -32 c0 -5 -2 -10 -4 -10 -3 0 -8 5 -11 10 -3 6 -1 10 4 10 6 0 11
-4 11 -10z m10 -58 c0 -10 -42 23 -51 41 -10 17 -6 16 19 -8 18 -17 32 -31 32
-33z m-698 -110 c20 -31 79 -110 130 -175 113 -144 173 -226 133 -182 -52 57
-286 359 -301 387 -25 49 -1 29 38 -30z m1351 41 c-8 -22 -53 -96 -63 -103 -3
-3 -34 -40 -68 -83 -34 -43 -62 -76 -62 -72 0 6 37 56 119 162 22 29 47 66 56
83 17 33 28 41 18 13z m-223 -307 c0 -2 -8 -10 -17 -17 -16 -13 -17 -12 -4 4
13 16 21 21 21 13z m-69 -93 c-14 -24 -55 -72 -45 -53 10 20 47 70 51 70 2 0
-1 -8 -6 -17z m2549 -700 c0 -189 -39 -691 -75 -969 -29 -219 -91 -534 -106
-534 -6 0 -8 12 -5 28 2 15 8 59 11 97 3 39 17 133 30 210 45 256 92 729 110
1085 7 140 12 180 26 180 5 0 9 -44 9 -97z m-5882 -100 c29 -455 60 -770 102
-1033 29 -180 51 -372 45 -378 -18 -19 -89 367 -124 678 -32 278 -70 888 -56
909 16 27 22 -1 33 -176z m5464 -140 c-5 -76 -10 -83 -11 -15 0 34 2 62 7 62
4 0 6 -21 4 -47z m-5065 -15 c-2 -13 -4 -5 -4 17 -1 22 1 32 4 23 2 -10 2 -28
0 -40z m0 -50 c-3 -8 -6 -5 -6 6 -1 11 2 17 5 13 3 -3 4 -12 1 -19z m1687 -49
c8 -12 12 -27 9 -35 -8 -21 -41 -27 -59 -10 -20 20 -30 21 -14 1 8 -9 8 -15 2
-15 -16 0 -20 22 -9 53 11 33 49 37 71 6z m1767 0 c13 -11 17 -18 9 -16 -8 2
-20 -3 -27 -12 -13 -19 -63 -23 -56 -5 2 7 -1 15 -7 19 -17 10 8 35 35 35 13
0 33 -9 46 -21z m9 -33 c0 -2 -8 -10 -17 -17 -16 -13 -17 -12 -4 4 13 16 21
21 21 13z m-1694 -81 c-3 -9 -10 -14 -15 -10 -5 3 -13 0 -17 -6 -4 -8 -3 -9 4
-5 7 4 12 2 12 -4 0 -14 -59 -49 -96 -56 -53 -10 -110 12 -134 52 -12 19 -20
37 -18 40 3 2 11 -7 18 -21 7 -14 23 -26 34 -26 65 -4 119 2 144 15 15 9 35
18 45 22 9 3 17 11 17 17 0 6 3 8 6 4 4 -3 4 -13 0 -22z m1644 -45 c19 1 52 7
73 14 22 8 37 10 37 4 0 -6 7 -4 17 3 14 12 16 12 11 0 -8 -27 -55 -53 -102
-58 -53 -6 -131 18 -146 47 -14 27 -3 29 38 9 20 -11 52 -19 72 -19z m-1405
10 c3 -5 1 -10 -4 -10 -6 0 -11 5 -11 10 0 6 2 10 4 10 3 0 8 -4 11 -10z m496
-837 c13 -16 12 -17 -3 -4 -10 7 -18 15 -18 17 0 8 8 3 21 -13z m30 -40 c13
-16 12 -17 -3 -4 -10 7 -18 15 -18 17 0 8 8 3 21 -13z m-621 -4178 c17 -21 4
-1054 -13 -1071 -7 -7 -47 -14 -89 -17 -86 -7 -101 2 -101 53 l0 29 -41 -33
c-65 -53 -122 -69 -218 -64 -98 5 -159 29 -209 81 -159 164 -136 547 41 687
69 55 126 74 215 74 85 -1 134 -16 189 -58 l31 -23 -1 161 c-1 89 3 169 8 179
7 14 23 17 92 17 62 0 87 -4 96 -15z m2019 -9 c10 -12 31 -623 31 -897 0 -114
-4 -170 -11 -175 -19 -11 -173 -4 -186 9 -19 19 -23 1038 -4 1060 10 13 30 16
87 15 41 0 78 -6 83 -12z m-308 -13 c6 -6 9 -45 7 -89 l-3 -79 -222 -3 -223
-2 0 -131 0 -130 183 2 c101 1 189 -1 195 -5 16 -10 16 -158 0 -174 -8 -8 -66
-12 -195 -12 l-183 0 0 -214 c0 -186 -2 -215 -16 -220 -29 -11 -179 -7 -192 6
-17 17 -17 1039 0 1056 14 14 635 9 649 -5z m-3523 -9 c39 -9 76 -22 81 -28
14 -17 -18 -166 -37 -174 -8 -3 -38 2 -66 11 -218 69 -396 -11 -469 -211 -30
-83 -30 -268 -1 -332 31 -67 68 -106 132 -137 77 -38 192 -38 300 -1 l74 25
13 -21 c14 -23 27 -148 16 -163 -34 -53 -292 -84 -436 -54 -230 49 -355 223
-355 496 0 110 22 205 70 301 69 140 210 253 365 290 73 18 230 17 313 -2z
m2412 -235 c176 -28 285 -161 297 -361 6 -92 -2 -117 -35 -116 -9 0 -128 -1
-264 -2 -184 -1 -248 -4 -248 -13 1 -27 39 -95 68 -119 17 -14 48 -32 68 -38
51 -17 236 -7 287 15 56 23 67 10 67 -81 0 -88 3 -85 -129 -108 -166 -28 -293
-15 -386 39 -62 36 -129 114 -156 181 -21 51 -24 76 -24 189 0 125 1 132 32
197 63 133 188 215 343 227 8 0 44 -4 80 -10z m2064 -14 c94 -25 180 -95 227
-186 41 -80 63 -245 36 -268 -9 -7 -108 -13 -270 -17 -255 -7 -257 -7 -251
-28 22 -70 80 -129 146 -147 52 -14 192 -6 263 15 27 9 53 12 58 7 5 -5 11
-42 14 -84 7 -92 8 -91 -144 -114 -178 -26 -317 7 -418 99 -162 148 -181 461
-36 621 90 100 234 139 375 102z m-3732 -33 c116 -57 182 -156 197 -298 15
-128 -8 -238 -67 -330 -65 -100 -161 -156 -298 -175 -191 -25 -343 56 -410
219 -19 46 -24 76 -24 152 0 151 33 250 113 337 91 99 178 134 323 130 90 -2
107 -6 166 -35z m4265 -9 c11 -14 50 -70 85 -124 34 -54 65 -98 68 -98 3 0 28
43 55 96 78 150 69 143 185 143 68 0 101 -4 108 -13 9 -10 -15 -52 -99 -178
-61 -90 -115 -172 -120 -181 -7 -13 10 -43 78 -135 47 -65 115 -157 150 -205
l63 -88 -26 -6 c-18 -5 -163 -1 -201 6 -1 0 -37 51 -79 113 -43 61 -85 122
-95 134 -16 22 -17 21 -95 -107 l-79 -130 -100 0 c-55 0 -106 4 -114 9 -11 7
-5 22 31 73 25 36 84 124 131 196 l86 131 -72 103 c-40 57 -99 140 -131 186
-32 45 -56 88 -53 95 4 10 30 12 103 9 92 -3 101 -5 121 -29z"/>
<path d="M5890 6836 c0 -2 8 -10 18 -17 15 -13 16 -12 3 4 -13 16 -21 21 -21
13z"/>
<path d="M4070 1319 c-65 -27 -106 -95 -120 -201 -7 -55 -7 -87 4 -130 18 -77
39 -106 93 -130 58 -25 155 -18 204 15 l31 22 2 194 1 195 -30 17 c-37 22
-151 33 -185 18z"/>
<path d="M4976 1350 c-53 -17 -96 -70 -111 -137 l-7 -33 166 0 166 0 0 26 c0
39 -29 92 -64 119 -35 26 -107 38 -150 25z"/>
<path d="M6990 1332 c-37 -18 -73 -73 -85 -129 l-7 -33 166 0 166 0 0 23 c0
12 -10 43 -22 67 -41 80 -138 112 -218 72z"/>
<path d="M3196 1325 c-51 -18 -90 -57 -118 -119 -20 -43 -23 -67 -23 -161 0
-129 14 -169 76 -209 54 -37 111 -35 173 4 38 24 53 43 78 96 27 58 31 76 31
158 0 75 -4 101 -21 138 -26 54 -55 81 -101 97 -42 14 -47 13 -95 -4z"/>
</g>
</svg>
